P1
3 5
# answer to test1.pbm
10101
01010
10101